<?xml version="1.0" standalone="no"?>
<!DOCTYPE svg PUBLIC "-//W3C//DTD SVG 20010904//EN"
 "http://www.w3.org/TR/2001/REC-SVG-20010904/DTD/svg10.dtd">
<svg version="1.0" xmlns="http://www.w3.org/2000/svg"
 width="310.000000pt" height="310.000000pt" viewBox="0 0 310.000000 310.000000"
 preserveAspectRatio="xMidYMid meet">
<metadata>
Created by potrace 1.11, written by Peter Selinger 2001-2013
</metadata>
<g transform="translate(0.000000,310.000000) scale(0.100000,-0.100000)"
fill="#000000" stroke="none">
<path d="M1499 2778 c-1 -18 -1 -50 -2 -70 0 -34 -3 -38 -36 -49 -85 -28 -145
-81 -190 -169 -31 -61 -39 -87 -47 -158 -3 -26 -7 -55 -10 -64 -3 -10 2 -18
13 -21 10 -3 163 -5 341 -5 l323 0 -2 57 c-4 107 -49 219 -115 283 -36 37
-106 77 -141 82 -18 3 -20 12 -22 114 l-1 32 -55 0 -55 0 -1 -32z"/>
<path d="M1217 2106 c-2 -6 -2 -57 -1 -114 2 -110 2 -110 -52 -116 -16 -2 -31
-4 -34 -5 -3 0 -4 -94 -3 -208 l2 -208 33 -2 c18 -1 38 -2 44 -2 7 -1 10 -161
9 -518 0 -285 1 -526 3 -535 4 -17 28 -18 337 -18 258 0 334 3 337 13 2 6 3
247 3 535 l-1 522 30 1 c17 1 37 1 44 0 14 -2 13 -18 15 232 l2 197 -38 -3
c-21 -2 -41 1 -45 7 -4 6 -8 58 -9 116 0 58 -1 108 -2 111 -2 11 -670 6 -674
-5z m397 -180 c21 -11 48 -27 60 -33 11 -7 29 -13 39 -13 12 0 25 -15 36 -42
25 -58 34 -108 19 -108 -6 0 -8 3 -5 6 7 8 -27 60 -58 88 -56 52 -153 70 -221
41 -44 -18 -99 -70 -115 -107 -6 -16 -13 -27 -16 -25 -10 11 69 148 116 200
23 25 30 27 66 21 22 -3 57 -16 79 -28z m-6 -160 c12 -4 22 -14 22 -22 0 -11
-15 -14 -66 -14 -56 0 -65 2 -62 17 5 26 56 35 106 19z"/>
<path d="M981 1864 c-41 -17 -77 -58 -92 -101 -10 -31 -13 -33 -60 -33 -47 0
-49 -1 -50 -27 0 -16 -1 -43 -2 -61 -2 -35 5 -39 68 -40 16 0 31 -5 33 -11 18
-54 53 -98 96 -120 32 -16 50 -21 54 -14 11 18 8 416 -3 419 -6 2 -25 -3 -44
-12z"/>
<path d="M2077 1872 c-2 -4 -3 -99 -2 -212 l1 -205 23 3 c45 5 90 42 113 93
23 50 25 51 91 51 27 1 27 2 27 64 l0 64 -49 0 c-48 0 -50 1 -61 35 -12 35
-73 104 -93 106 -7 0 -20 2 -29 4 -10 2 -19 0 -21 -3z"/>
</g>
</svg>
