<?xml version="1.0" encoding="utf-8"?>
<!-- Generator: Adobe Illustrator 21.1.0, SVG Export Plug-In . SVG Version: 6.00 Build 0)  -->
<svg version="1.1" id="Layer_1" xmlns="http://www.w3.org/2000/svg" xmlns:xlink="http://www.w3.org/1999/xlink" x="0px" y="0px"
	 viewBox="0 0 288 288" style="enable-background:new 0 0 288 288;" xml:space="preserve">
<style type="text/css">
	.st0{fill:#004FA3;}
	.st1{fill:#DF6F1D;}
	.st2{fill:#FFFFFF;}
</style>
<path class="st0" d="M95.8,43.5c1.9,0.5,3-0.7,3.4-2.2c0.2-1.8,0.5-3.8,1.4-5c5.1,0.1,10.4-0.4,15.2,0.4l-0.3,38l-15.6,0.2
	c-3.6-11.4-15.4-21-26.9-23c-10-2.2-22.4-1.7-30.9,4c-2,2.1-3.2,4.6-3.4,7.5c-0.1,4.7,3.4,8.1,7.2,10.3c16.7,6.7,36.6,5.4,53.5,11.3
	c-13,4.4-25.2,11.2-35,22.8c-14.9-1.4-29.7-2.9-40.8-13.5c-8.1-8.5-10.6-20.8-7.9-32.4c3.4-13.4,17.5-23,30.2-25.6
	C63,32.5,81.4,34.9,95.8,43.5z"/>
<path class="st1" d="M180.8,116.7c14.2,20,15.7,51.8,3.8,73.4c-12.3,23.7-37,38.8-63.3,39.1C92,230.2,64,211,53.1,184.3
	C43,159.8,47.6,129,64.9,109.2c19.1-21.6,47.4-30.8,75.6-22.5C156,91.6,171.6,101.9,180.8,116.7z"/>
<path class="st2" d="M184.9,128.2c10,21.4,7,50.1-6.7,68.9c-15.9,21.8-39.9,32.4-66.3,29.7c-26-2.1-52.1-23.8-59-48.9
	c-8-27.3-0.5-56.1,20.9-74.9c17.9-16,44.3-21.6,67.9-13.9C160,94.7,177.4,110.1,184.9,128.2z"/>
<path class="st0" d="M178.2,126.5c11.4,19.5,9.1,48.8-3.6,67c-14.3,20.6-36.7,30.5-61.2,28.5c-23.7-2.2-47-20.4-54.5-43.2
	c-8.3-21.9-2.8-47.6,12-64.8c17.4-20.1,45.5-27.7,69.8-19.4C156.1,99.6,170.4,111.6,178.2,126.5z"/>
<path class="st2" d="M170,127.7c9.3,15.6,10.3,38.6,1.9,55c-10,20.4-31.3,32.4-53.5,31.9c-21-0.9-41.9-13.8-50.2-33.9
	c-9.6-20.3-5.1-47.2,10.6-63.3c15.2-15.9,38.2-21.8,59-15.4C150.4,106.2,163.2,115.3,170,127.7z"/>
<path class="st0" d="M32.2,112.8c1.3,9.3,8.7,18.3,17.3,22.1c-1.7,5.1-2.4,10.6-3.1,16.1c-4-0.7-7.4-4.3-11.5-5.3
	c-1.8,2.2-1.4,5.3-3.1,7.4l-14.9-0.2c-0.4-14-0.4-26.6,0-40.6C22,112.5,27.4,111.9,32.2,112.8z"/>
<path class="st1" d="M125.4,121.5c5,5.8,5.7,14.2,4.5,22c-1.4,5.8-6.4,11.6-12.2,13.5c-10.1,3.1-22.9,1.1-33.4,1.7v-5.3
	c2.4-0.1,5.4-0.3,6-3.1l-0.2-28.4c-1-2.3-3.4-2.2-5.5-2.1v-5.3C98.5,115.4,115,110.5,125.4,121.5z"/>
<path class="st2" d="M116.7,127c2.5,6.5,2.8,15.4-1.2,21.3c-3.1,4.8-8.5,4.9-13.9,4.6c-0.2-11.5-0.7-22.9-0.2-32.6
	C107.5,119.3,113.9,121.1,116.7,127z"/>
<path class="st0" d="M268.9,134.4v44.9l-0.8,0.5h-13.9c-0.3-11.3-1.8-23.5-12.9-29.8l-6.3-1.7h-31.9c-0.5,10.6,0.1,22.8-0.5,33.9
	c6.1,0.7,13,0.5,15.9-5.5c2.5-4,2.1-9.2,2.1-14.2c4.8-0.3,10.1-0.6,14.7,0.2v55.2h-14.7c-0.9-2.9-0.1-6.7-0.7-9.8
	c-0.8-3.9-3.9-8.2-7.9-9.6h-9.1l0.2,31.4c3.7,8.8,15.1,3.2,22.6,4.8c0.4,4.5,0.1,9.8,0.2,14.7l-0.7,0.5h-70.3
	c-0.5-4.8-0.2-9.8-0.3-14.7c4.7-0.5,9.8,0.1,14.4-0.5c9.5-4.9,2.9-16.9,4.8-25.6c19-19.6,26-48.6,17.3-75.2l0.5-0.7l76.5,0.3
	L268.9,134.4z"/>
<path class="st1" d="M158,139.9c2.5,4.1,1.6,10.1-1.2,13.7c-6.3,7.9-17.8,3.9-26.4,5.3c0.1,4.8-1.6,10.2,2.4,13.4
	c2.2,0.5,5.1,0.2,7.2,0.3c0.1,2,1,4.4-0.7,5.5h-27.9l-0.4-0.5l0.2-5c2.8-0.5,7.1,1.3,7.9-2.4v-11.8c4-2.2,8.8-5.1,10.8-9.6
	c0.3,1.4-0.6,3.4,0.7,4.1c5.9-0.8,14.1,2.4,16.8-4.6c0.6-2.5,0.3-5.4-1.6-7.2c-3.6-3-9.2-1.1-13.7-1.6v-6
	C140.3,135.3,153,129.9,158,139.9z"/>
<path class="st1" d="M117.4,139.7c-1.6-0.2-4.1-0.7-6.4-0.5v-5.5h6.4V139.7z"/>
<path class="st1" d="M108.8,169.2c-1.9,0.2-4.1,0.3-5,2.4c1.9,9.1,4.9,17.8,8.1,26.4c2.4-5.4,4-11.2,6-16.8l13.5-0.2l5.7,16.8h0.5
	c3.8-8.4,6.1-17.5,9.1-26.2c-0.7-2.3-3.4-1.7-5.3-2.1c-0.2-1.6-0.7-4.2,0.5-5.3l17.5,0.2v5.1c-1.8,0.6-4.6,0.3-5.2,2.8l-12.8,35.1
	l-13.4,0.5c-1.8-5.9-3.4-11.8-5.5-17.6c-2.9,5.3-4.3,11.7-6.7,17.3l-13,0.3L91,171.6c-1.1-1.7-2.8-2.2-4.8-1.9l-0.2-5
	c7-0.8,15.2-0.6,22.6-0.3L108.8,169.2z"/>
</svg>
