<?xml version="1.0" encoding="utf-8"?>
<!-- Generator: Adobe Illustrator 21.1.0, SVG Export Plug-In . SVG Version: 6.00 Build 0)  -->
<svg version="1.1" id="Layer_1_copy" xmlns="http://www.w3.org/2000/svg" xmlns:xlink="http://www.w3.org/1999/xlink" x="0px"
	 y="0px" viewBox="0 0 516.5 155" style="enable-background:new 0 0 516.5 155;" xml:space="preserve">
<style type="text/css">
	.st0{fill:#007DC3;}
	.st1{fill:#FDB913;}
	.st2{fill:#8DC63F;}
	.st3{fill:#FFFFFF;}
</style>
<g>
	<g>
		<path class="st0" d="M73.4,126.5c-26.7,0-48.4-21.7-48.4-48.4c0-22.5,15.4-41.4,36.2-46.8C35.8,35,16.3,56.9,16.3,83.3
			c0,29.1,23.6,52.6,52.6,52.6c29.1,0,52.6-23.6,52.6-52.6c0-0.3,0-0.5,0-0.8C119.3,107.2,98.6,126.5,73.4,126.5z"/>
		<path class="st0" d="M74.8,38.7c23.1,1.7,40.5,20.7,38.8,43.8c-0.7,9-4.1,17.1-9.4,23.6c7.2-6.9,12-16.3,12.8-27
			c1.7-22.8-15.5-42.7-38.3-44.4c-10.8-0.8-21,2.7-28.8,8.9C57,39.2,65.7,38.1,74.8,38.7z"/>
		<g>
			<g>
				<path class="st0" d="M104.5,73c-2.8-9.6-9.5-20.9-21.6-30.8c-9.7-7.9-11.9-24.4-11.9-24.4s-11.8,11.2-17.3,19
					c-1.5,2.2-2.9,4.4-4.3,6.6C56.5,50,85.2,74.6,104.5,73z"/>
				<path class="st1" d="M66,75l22.1,10.4l-3.6,3.3l19.1,7.5c1.6-4,2.5-8.3,2.5-12.8c0-1.9-0.2-3.9-0.6-6.1
					c-0.9,0.1-1.8,0.1-2.7,0.1c-20.5,0-47.5-22.6-55.7-30c-1.3,2.3-2.5,4.6-3.6,6.9L70,69.9L66,75z"/>
				<path class="st1" d="M55.3,87.1c15.1,11.1,30.5,15.7,46,13.7c0.7-1.2,1.3-2.3,1.8-3.6l-29.6-5.8l3.5-4.2l-23.6-8.6l4.8-6.8
					l-19-7.5c-0.7,1.9-1.3,3.9-1.9,5.7C39.9,73,46.2,80.3,55.3,87.1z"/>
				<path class="st2" d="M35.8,89.3c2.8,16.4,17.4,28.9,34.9,28.9c3.8,0,7.5-0.6,11-1.7c-11.1-1.1-22.2-5.9-32.6-14.2
					C43.4,97.7,38.9,93,35.8,89.3z"/>
				<path class="st2" d="M98,105.5c-1.2,0.1-2.4,0.1-3.5,0.1c-14.1,0-28.4-5.1-41.8-15.1C45.1,85,39.5,79.2,36.2,75.4
					c-0.4,2.1-0.7,4.2-0.8,6.1c2.2,3,8,10.5,16.5,17.3c12.6,10,25.6,14.5,38.7,13.3C93.4,110.3,95.9,108,98,105.5z"/>
				<path class="st3" d="M53.5,78.5l23.6,8.6l-3.5,4.2l29.6,5.8c0.1-0.3,0.3-0.7,0.4-1l-19.1-7.5l3.6-3.3L66,75l4.1-5L43.5,54.4
					c-1.6,3.3-3,6.6-4.2,9.9l19,7.5L53.5,78.5z"/>
				<path class="st3" d="M105.5,77.4c-0.3-1.4-0.6-2.8-1-4.3c-19.2,1.6-48-23-55.1-29.4c-0.8,1.3-1.5,2.6-2.3,3.9
					c8.2,7.4,35.2,30,55.7,30C103.7,77.5,104.6,77.5,105.5,77.4z"/>
				<path class="st3" d="M52.6,90.6c13.4,9.9,27.7,15.1,41.8,15.1c1.2,0,2.4-0.1,3.5-0.1c1.2-1.5,2.4-3.1,3.3-4.8
					c-15.5,2-30.9-2.6-46-13.7C46.2,80.3,39.9,73,37.5,70c-0.5,1.8-1,3.6-1.3,5.4C39.5,79.2,45.1,85,52.6,90.6z"/>
				<path class="st3" d="M51.9,98.8C43.4,92,37.6,84.6,35.4,81.5c0,0.6-0.1,1.3-0.1,1.9c0,2,0.2,3.9,0.5,5.9
					c3.1,3.7,7.6,8.4,13.2,12.9c10.4,8.3,21.5,13.1,32.6,14.2c3.2-1,6.2-2.5,9-4.3C77.5,113.3,64.5,108.8,51.9,98.8z"/>
			</g>
		</g>
		<circle class="st3" cx="77.6" cy="48.5" r="3.1"/>
		<path class="st3" d="M87.3,57.2c0,2.4-2,4.4-4.4,4.4c-2.4,0-4.4-2-4.4-4.4c0-2.4,2-4.4,4.4-4.4C85.3,52.8,87.3,54.8,87.3,57.2z"/>
	</g>
	<path class="st0" d="M140.4,58.2l1.9-2.3c2.9,2.6,5.6,3.9,9.4,3.9c3.7,0,6.1-2,6.1-4.6V55c0-2.5-1.4-4-7.1-5.2
		c-6.3-1.4-9.2-3.4-9.2-7.9v-0.1c0-4.3,3.8-7.5,9-7.5c4,0,6.8,1.1,9.6,3.4l-1.8,2.4c-2.5-2.1-5.1-3-7.9-3c-3.6,0-5.8,2-5.8,4.4v0.1
		c0,2.6,1.4,4,7.4,5.3c6.1,1.3,8.9,3.6,8.9,7.7v0.1c0,4.7-3.9,7.7-9.3,7.7C147.2,62.6,143.7,61.1,140.4,58.2z"/>
	<path class="st0" d="M165.2,56.3L165.2,56.3c0-4.3,3.5-6.6,8.6-6.6c2.6,0,4.4,0.4,6.2,0.9v-0.7c0-3.6-2.2-5.5-6-5.5
		c-2.4,0-4.3,0.6-6.1,1.5l-0.9-2.5c2.2-1,4.4-1.7,7.3-1.7c2.9,0,5,0.7,6.5,2.2c1.4,1.4,2.1,3.3,2.1,5.9v12.4H180v-3
		c-1.4,1.8-3.8,3.5-7.3,3.5C169,62.6,165.2,60.4,165.2,56.3z M180.1,54.7v-2c-1.5-0.4-3.5-0.9-5.9-0.9c-3.8,0-5.9,1.6-5.9,4.2v0.1
		c0,2.5,2.3,4,5.1,4C177,60.2,180.1,57.9,180.1,54.7z"/>
	<path class="st0" d="M188.5,41.9h3v3.5c1.3-2.2,3.4-3.9,6.9-3.9c4.9,0,7.7,3.3,7.7,8.1v12.5h-3V50.4c0-3.8-2-6.1-5.6-6.1
		c-3.5,0-6.1,2.5-6.1,6.3v11.6h-3V41.9z"/>
	<path class="st0" d="M224.1,34.8h19.7v2.9h-16.6v9.8H242v2.8h-14.8v11.9h-3.1V34.8z"/>
	<path class="st0" d="M246.9,41.9h3v5.3c1.5-3.4,4.4-5.8,8.2-5.6v3.2h-0.2c-4.4,0-8,3.2-8,9.3v8.1h-3V41.9z"/>
	<path class="st0" d="M261.2,56.3L261.2,56.3c0-4.3,3.5-6.6,8.6-6.6c2.6,0,4.4,0.4,6.2,0.9v-0.7c0-3.6-2.2-5.5-6-5.5
		c-2.4,0-4.3,0.6-6.1,1.5l-0.9-2.5c2.2-1,4.4-1.7,7.3-1.7c2.9,0,5,0.7,6.5,2.2c1.4,1.4,2.1,3.3,2.1,5.9v12.4H276v-3
		c-1.4,1.8-3.8,3.5-7.3,3.5C265,62.6,261.2,60.4,261.2,56.3z M276.1,54.7v-2c-1.5-0.4-3.5-0.9-5.9-0.9c-3.8,0-5.9,1.6-5.9,4.2v0.1
		c0,2.5,2.3,4,5.1,4C273,60.2,276.1,57.9,276.1,54.7z"/>
	<path class="st0" d="M284.5,41.9h3v3.5c1.3-2.2,3.4-3.9,6.9-3.9c4.9,0,7.7,3.3,7.7,8.1v12.5h-3V50.4c0-3.8-2-6.1-5.6-6.1
		c-3.5,0-6.1,2.5-6.1,6.3v11.6h-3V41.9z"/>
	<path class="st0" d="M306.6,52.2L306.6,52.2c0-5.8,4.5-10.6,10.4-10.6c3.8,0,6.2,1.6,8.1,3.6l-2,2.1c-1.6-1.7-3.4-3.1-6.1-3.1
		c-4.1,0-7.2,3.5-7.2,7.8v0.1c0,4.4,3.2,7.9,7.4,7.9c2.6,0,4.6-1.3,6.2-3l1.9,1.8c-2,2.3-4.5,3.9-8.2,3.9
		C311.1,62.6,306.6,57.8,306.6,52.2z"/>
	<path class="st0" d="M329.5,34.2h3.4v3.3h-3.4V34.2z M329.7,41.9h3v20.2h-3V41.9z"/>
	<path class="st0" d="M337.2,59.6l1.5-2.2c2.2,1.6,4.6,2.6,7,2.6c2.4,0,4.2-1.2,4.2-3.2v-0.1c0-2-2.4-2.8-5-3.6
		c-3.2-0.9-6.7-2-6.7-5.7v-0.1c0-3.5,2.9-5.8,6.9-5.8c2.5,0,5.2,0.9,7.3,2.2l-1.4,2.3c-1.9-1.2-4-2-6-2c-2.4,0-3.9,1.2-3.9,2.9v0.1
		c0,1.9,2.5,2.7,5.2,3.5c3.1,0.9,6.5,2.1,6.5,5.8v0.1c0,3.8-3.2,6.1-7.2,6.1C342.7,62.6,339.5,61.4,337.2,59.6z"/>
	<path class="st0" d="M356.3,52.2L356.3,52.2c0-5.8,4.5-10.6,10.4-10.6c3.8,0,6.2,1.6,8.1,3.6l-2,2.1c-1.6-1.7-3.4-3.1-6.1-3.1
		c-4.1,0-7.2,3.5-7.2,7.8v0.1c0,4.4,3.2,7.9,7.4,7.9c2.6,0,4.6-1.3,6.2-3l1.9,1.8c-2,2.3-4.5,3.9-8.2,3.9
		C360.8,62.6,356.3,57.8,356.3,52.2z"/>
	<path class="st0" d="M377.3,52.2L377.3,52.2c0-5.8,4.5-10.6,10.6-10.6c6.1,0,10.5,4.8,10.5,10.5v0.1c0,5.7-4.5,10.6-10.6,10.6
		C381.7,62.6,377.3,57.9,377.3,52.2z M395.2,52.2L395.2,52.2c0-4.4-3.2-8-7.5-8c-4.4,0-7.4,3.6-7.4,7.8v0.1c0,4.3,3.2,7.9,7.5,7.9
		C392.2,59.9,395.2,56.4,395.2,52.2z"/>
	<path class="st0" d="M139.7,75.3h5.2l6.5,20.3l6.7-20.4h4.1l6.7,20.4l6.5-20.3h5l-9.5,27.6h-4.2l-6.7-19.7l-6.7,19.7h-4.1
		L139.7,75.3z"/>
	<path class="st0" d="M180,96.8L180,96.8c0-4.5,3.5-6.7,8.5-6.7c2.3,0,3.9,0.4,5.5,0.9v-0.5c0-2.9-1.8-4.5-5.1-4.5
		c-2.3,0-4,0.5-5.9,1.3l-1.3-3.7c2.3-1,4.5-1.7,7.8-1.7c3.1,0,5.4,0.8,6.8,2.3c1.5,1.5,2.2,3.7,2.2,6.4v12.2h-4.6v-2.6
		c-1.4,1.7-3.6,3-6.7,3C183.5,103.1,180,100.9,180,96.8z M194.2,95.3v-1.4c-1.2-0.5-2.8-0.8-4.7-0.8c-3,0-4.8,1.3-4.8,3.4v0.1
		c0,2,1.8,3.1,4,3.1C191.8,99.7,194.2,97.9,194.2,95.3z"/>
	<path class="st0" d="M205.1,97V86.1h-2.6v-4.1h2.6v-5.7h4.7v5.7h5.5v4.1h-5.5v10.1c0,1.8,0.9,2.6,2.5,2.6c1.1,0,2-0.2,2.9-0.7v3.9
		c-1.2,0.7-2.5,1.1-4.3,1.1C207.6,103,205.1,101.5,205.1,97z"/>
	<path class="st0" d="M218.3,92.5L218.3,92.5c0-6,4.2-10.8,10.1-10.8c6.6,0,9.9,5.2,9.9,11.1c0,0.4,0,0.9-0.1,1.3H223
		c0.5,3.4,2.9,5.2,5.9,5.2c2.3,0,3.9-0.9,5.6-2.5l2.8,2.5c-2,2.3-4.7,3.9-8.4,3.9C222.9,103.2,218.3,98.8,218.3,92.5z M233.6,90.9
		c-0.3-3.1-2.1-5.4-5.2-5.4c-2.9,0-4.9,2.2-5.4,5.4H233.6z"/>
	<path class="st0" d="M242.2,82.1h4.7v4.7c1.3-3.1,3.7-5.2,7.3-5v5H254c-4.1,0-7,2.7-7,8.2v7.9h-4.7V82.1z"/>
	<path class="st1" d="M264.4,75.3h10.8c6.4,0,10.4,3.6,10.4,9.2v0.1c0,6.1-4.9,9.3-10.9,9.3h-5.4v8.8h-4.8V75.3z M274.8,89.6
		c3.6,0,5.9-2,5.9-4.9v-0.1c0-3.2-2.3-4.9-5.9-4.9h-5.6v9.9H274.8z"/>
	<path class="st1" d="M286.9,92.5L286.9,92.5c0-6,4.7-10.9,11-10.9c6.3,0,11,4.8,11,10.7v0.1c0,5.9-4.7,10.7-11.1,10.7
		C291.5,103.2,286.9,98.4,286.9,92.5z M304.2,92.5L304.2,92.5c0-3.7-2.6-6.7-6.3-6.7c-3.8,0-6.2,3-6.2,6.6v0.1
		c0,3.6,2.6,6.6,6.3,6.6C301.7,99,304.2,96.1,304.2,92.5z"/>
	<path class="st1" d="M309.2,82.1h4.8l4.1,14.1l4.6-14.2h4.1l4.6,14.2l4.2-14.1h4.8l-6.8,20.8h-4.3l-4.6-14.1l-4.7,14.1h-4.2
		L309.2,82.1z"/>
	<path class="st1" d="M341.7,92.5L341.7,92.5c0-6,4.2-10.8,10.1-10.8c6.6,0,9.9,5.2,9.9,11.1c0,0.4,0,0.9-0.1,1.3h-15.2
		c0.5,3.4,2.9,5.2,5.9,5.2c2.3,0,3.9-0.9,5.6-2.5l2.8,2.5c-2,2.3-4.7,3.9-8.4,3.9C346.3,103.2,341.7,98.8,341.7,92.5z M356.9,90.9
		c-0.3-3.1-2.1-5.4-5.2-5.4c-2.9,0-4.9,2.2-5.4,5.4H356.9z"/>
	<path class="st1" d="M365.6,82.1h4.7v4.7c1.3-3.1,3.7-5.2,7.3-5v5h-0.3c-4.1,0-7,2.7-7,8.2v7.9h-4.7V82.1z"/>
	<path class="st2" d="M385.9,98.7l2.9-3.4c2.6,2.3,5.3,3.6,8.6,3.6c3,0,4.8-1.4,4.8-3.4v-0.1c0-2-1.1-3-6.2-4.2
		c-5.8-1.4-9.1-3.1-9.1-8.2v-0.1c0-4.7,3.9-7.9,9.3-7.9c4,0,7.2,1.2,9.9,3.4l-2.6,3.6c-2.5-1.8-4.9-2.8-7.4-2.8
		c-2.8,0-4.5,1.4-4.5,3.2v0.1c0,2.1,1.2,3,6.5,4.3c5.8,1.4,8.8,3.5,8.8,8v0.1c0,5.1-4,8.2-9.8,8.2
		C393.2,103.1,389.2,101.6,385.9,98.7z"/>
	<path class="st2" d="M410.5,92.5L410.5,92.5c0-6,4.2-10.8,10.1-10.8c6.6,0,9.9,5.2,9.9,11.1c0,0.4,0,0.9-0.1,1.3h-15.2
		c0.5,3.4,2.9,5.2,5.9,5.2c2.3,0,3.9-0.9,5.6-2.5l2.8,2.5c-2,2.3-4.7,3.9-8.4,3.9C415.1,103.2,410.5,98.8,410.5,92.5z M425.8,90.9
		c-0.3-3.1-2.1-5.4-5.2-5.4c-2.9,0-4.9,2.2-5.4,5.4H425.8z"/>
	<path class="st2" d="M431.8,82.1h4.8l4.1,14.1l4.6-14.2h4.1l4.6,14.2l4.2-14.1h4.8l-6.8,20.8H452l-4.6-14.1l-4.7,14.1h-4.2
		L431.8,82.1z"/>
	<path class="st2" d="M464.3,92.5L464.3,92.5c0-6,4.2-10.8,10.1-10.8c6.6,0,9.9,5.2,9.9,11.1c0,0.4,0,0.9-0.1,1.3H469
		c0.5,3.4,2.9,5.2,5.9,5.2c2.3,0,3.9-0.9,5.6-2.5l2.8,2.5c-2,2.3-4.7,3.9-8.4,3.9C468.9,103.2,464.3,98.8,464.3,92.5z M479.6,90.9
		c-0.3-3.1-2.1-5.4-5.2-5.4c-2.9,0-4.9,2.2-5.4,5.4H479.6z"/>
	<path class="st2" d="M488.2,82.1h4.7v4.7c1.3-3.1,3.7-5.2,7.3-5v5H500c-4.1,0-7,2.7-7,8.2v7.9h-4.7V82.1z"/>
	<g>
		<g>
			<path d="M141.1,124l0.7-0.8c1,0.9,1.9,1.3,3.2,1.3c1.3,0,2.1-0.7,2.1-1.6v0c0-0.9-0.5-1.4-2.4-1.8c-2.1-0.5-3.1-1.2-3.1-2.7v0
				c0-1.5,1.3-2.5,3.1-2.5c1.4,0,2.3,0.4,3.3,1.1l-0.6,0.8c-0.9-0.7-1.7-1-2.7-1c-1.2,0-2,0.7-2,1.5v0c0,0.9,0.5,1.4,2.5,1.8
				c2.1,0.4,3,1.2,3,2.6v0c0,1.6-1.3,2.6-3.2,2.6C143.4,125.5,142.2,125,141.1,124z"/>
			<path d="M149.3,122L149.3,122c0-2,1.4-3.6,3.3-3.6c2,0,3.2,1.6,3.2,3.6c0,0.1,0,0.2,0,0.3h-5.4c0.1,1.5,1.2,2.3,2.4,2.3
				c0.9,0,1.6-0.4,2.2-1l0.6,0.6c-0.7,0.8-1.5,1.3-2.8,1.3C150.9,125.6,149.3,124.1,149.3,122z M154.8,121.6
				c-0.1-1.2-0.8-2.3-2.2-2.3c-1.2,0-2.1,1-2.2,2.3H154.8z"/>
			<path d="M157.4,118.5h1v1.8c0.5-1.1,1.5-2,2.8-1.9v1.1h-0.1c-1.5,0-2.7,1.1-2.7,3.2v2.7h-1V118.5z"/>
			<path d="M161.8,118.5h1.1l2.3,5.7l2.3-5.7h1.1l-3,6.9h-0.9L161.8,118.5z"/>
			<path d="M170,115.9h1.2v1.1H170V115.9z M170.1,118.5h1v6.9h-1V118.5z"/>
			<path d="M172.8,122L172.8,122c0-2,1.5-3.6,3.5-3.6c1.3,0,2.1,0.5,2.8,1.2l-0.7,0.7c-0.5-0.6-1.2-1-2.1-1c-1.4,0-2.5,1.2-2.5,2.7
				v0c0,1.5,1.1,2.7,2.5,2.7c0.9,0,1.6-0.4,2.1-1l0.7,0.6c-0.7,0.8-1.5,1.3-2.8,1.3C174.3,125.6,172.8,123.9,172.8,122z"/>
			<path d="M180,122L180,122c0-2,1.4-3.6,3.3-3.6c2,0,3.2,1.6,3.2,3.6c0,0.1,0,0.2,0,0.3H181c0.1,1.5,1.2,2.3,2.4,2.3
				c0.9,0,1.6-0.4,2.2-1l0.6,0.6c-0.7,0.8-1.5,1.3-2.8,1.3C181.5,125.6,180,124.1,180,122z M185.4,121.6c-0.1-1.2-0.8-2.3-2.2-2.3
				c-1.2,0-2.1,1-2.2,2.3H185.4z"/>
			<path d="M187.4,124.5l0.5-0.7c0.7,0.6,1.6,0.9,2.4,0.9c0.8,0,1.4-0.4,1.4-1.1v0c0-0.7-0.8-1-1.7-1.2c-1.1-0.3-2.3-0.7-2.3-1.9v0
				c0-1.2,1-2,2.3-2c0.8,0,1.8,0.3,2.5,0.8l-0.5,0.8c-0.6-0.4-1.4-0.7-2-0.7c-0.8,0-1.3,0.4-1.3,1v0c0,0.7,0.8,0.9,1.8,1.2
				c1.1,0.3,2.2,0.7,2.2,2v0c0,1.3-1.1,2.1-2.4,2.1C189.3,125.5,188.2,125.1,187.4,124.5z"/>
			<path d="M197.6,122L197.6,122c0-2,1.5-3.6,3.6-3.6c2.1,0,3.6,1.6,3.6,3.6v0c0,1.9-1.5,3.6-3.6,3.6
				C199.1,125.6,197.6,123.9,197.6,122z M203.8,122L203.8,122c0-1.5-1.1-2.7-2.6-2.7c-1.5,0-2.5,1.2-2.5,2.7v0
				c0,1.5,1.1,2.7,2.5,2.7C202.7,124.6,203.8,123.4,203.8,122z"/>
			<path d="M206.8,119.4h-0.9v-0.9h0.9v-0.6c0-0.8,0.2-1.4,0.6-1.8c0.3-0.3,0.9-0.5,1.5-0.5c0.5,0,0.8,0.1,1.1,0.2v0.9
				c-0.4-0.1-0.7-0.2-1-0.2c-0.8,0-1.2,0.5-1.2,1.5v0.6h2.2v0.9h-2.2v6h-1V119.4z"/>
			<path d="M215.1,123.6v-4.1h-1v-0.9h1v-2.1h1v2.1h2.2v0.9h-2.2v4c0,0.8,0.5,1.1,1.2,1.1c0.3,0,0.6-0.1,1-0.2v0.9
				c-0.4,0.2-0.7,0.3-1.2,0.3C215.9,125.5,215.1,125,215.1,123.6z"/>
			<path d="M219.8,115.7h1v4c0.5-0.7,1.2-1.3,2.4-1.3c1.7,0,2.6,1.1,2.6,2.8v4.3h-1v-4c0-1.3-0.7-2.1-1.9-2.1
				c-1.2,0-2.1,0.9-2.1,2.2v3.9h-1V115.7z"/>
			<path d="M227.3,122L227.3,122c0-2,1.4-3.6,3.3-3.6c2,0,3.2,1.6,3.2,3.6c0,0.1,0,0.2,0,0.3h-5.5c0.1,1.5,1.2,2.3,2.4,2.3
				c0.9,0,1.6-0.4,2.2-1l0.6,0.6c-0.7,0.8-1.5,1.3-2.8,1.3C228.9,125.6,227.3,124.1,227.3,122z M232.8,121.6
				c-0.1-1.2-0.8-2.3-2.2-2.3c-1.2,0-2.1,1-2.2,2.3H232.8z"/>
			<path d="M238.7,124l0.7-0.8c1,0.9,1.9,1.3,3.2,1.3c1.2,0,2.1-0.7,2.1-1.6v0c0-0.9-0.5-1.4-2.4-1.8c-2.1-0.5-3.1-1.2-3.1-2.7v0
				c0-1.5,1.3-2.5,3.1-2.5c1.4,0,2.3,0.4,3.3,1.1l-0.6,0.8c-0.9-0.7-1.7-1-2.7-1c-1.2,0-2,0.7-2,1.5v0c0,0.9,0.5,1.4,2.5,1.8
				c2.1,0.4,3,1.2,3,2.6v0c0,1.6-1.3,2.6-3.2,2.6C241,125.5,239.8,125,238.7,124z"/>
			<path d="M246.8,123.4L246.8,123.4c0-1.5,1.2-2.2,2.9-2.2c0.9,0,1.5,0.1,2.1,0.3v-0.2c0-1.2-0.8-1.9-2-1.9c-0.8,0-1.4,0.2-2.1,0.5
				l-0.3-0.8c0.8-0.3,1.5-0.6,2.5-0.6c1,0,1.7,0.3,2.2,0.8c0.5,0.5,0.7,1.1,0.7,2v4.2h-1v-1c-0.5,0.6-1.3,1.2-2.5,1.2
				C248.1,125.5,246.8,124.8,246.8,123.4z M251.9,122.9v-0.7c-0.5-0.1-1.2-0.3-2-0.3c-1.3,0-2,0.6-2,1.4v0c0,0.9,0.8,1.4,1.7,1.4
				C250.8,124.7,251.9,124,251.9,122.9z"/>
			<path d="M254.8,118.5h1v1.2c0.5-0.7,1.2-1.3,2.4-1.3c1.7,0,2.6,1.1,2.6,2.8v4.3h-1v-4c0-1.3-0.7-2.1-1.9-2.1
				c-1.2,0-2.1,0.9-2.1,2.2v3.9h-1V118.5z"/>
			<path d="M266.6,116.1h6.7v1h-5.6v3.3h5v1h-5v4.1h-1.1V116.1z"/>
			<path d="M274.9,118.5h1v1.8c0.5-1.1,1.5-2,2.8-1.9v1.1h-0.1c-1.5,0-2.7,1.1-2.7,3.2v2.7h-1V118.5z"/>
			<path d="M279.2,123.4L279.2,123.4c0-1.5,1.2-2.2,2.9-2.2c0.9,0,1.5,0.1,2.1,0.3v-0.2c0-1.2-0.8-1.9-2-1.9c-0.8,0-1.4,0.2-2.1,0.5
				l-0.3-0.8c0.8-0.3,1.5-0.6,2.5-0.6c1,0,1.7,0.3,2.2,0.8c0.5,0.5,0.7,1.1,0.7,2v4.2h-1v-1c-0.5,0.6-1.3,1.2-2.5,1.2
				C280.4,125.5,279.2,124.8,279.2,123.4z M284.2,122.9v-0.7c-0.5-0.1-1.2-0.3-2-0.3c-1.3,0-2,0.6-2,1.4v0c0,0.9,0.8,1.4,1.7,1.4
				C283.2,124.7,284.2,124,284.2,122.9z"/>
			<path d="M287.1,118.5h1v1.2c0.5-0.7,1.2-1.3,2.4-1.3c1.7,0,2.6,1.1,2.6,2.8v4.3h-1v-4c0-1.3-0.7-2.1-1.9-2.1
				c-1.2,0-2.1,0.9-2.1,2.2v3.9h-1V118.5z"/>
			<path d="M294.6,122L294.6,122c0-2,1.5-3.6,3.5-3.6c1.3,0,2.1,0.5,2.8,1.2l-0.7,0.7c-0.5-0.6-1.2-1-2.1-1c-1.4,0-2.5,1.2-2.5,2.7
				v0c0,1.5,1.1,2.7,2.5,2.7c0.9,0,1.6-0.4,2.1-1l0.7,0.6c-0.7,0.8-1.5,1.3-2.8,1.3C296.1,125.6,294.6,123.9,294.6,122z"/>
			<path d="M302.4,115.9h1.2v1.1h-1.2V115.9z M302.4,118.5h1v6.9h-1V118.5z"/>
			<path d="M305,124.5l0.5-0.7c0.7,0.6,1.6,0.9,2.4,0.9c0.8,0,1.4-0.4,1.4-1.1v0c0-0.7-0.8-1-1.7-1.2c-1.1-0.3-2.3-0.7-2.3-1.9v0
				c0-1.2,1-2,2.3-2c0.8,0,1.8,0.3,2.5,0.8l-0.5,0.8c-0.6-0.4-1.4-0.7-2-0.7c-0.8,0-1.3,0.4-1.3,1v0c0,0.7,0.8,0.9,1.8,1.2
				c1.1,0.3,2.2,0.7,2.2,2v0c0,1.3-1.1,2.1-2.4,2.1C306.9,125.5,305.8,125.1,305,124.5z"/>
			<path d="M311.5,122L311.5,122c0-2,1.5-3.6,3.5-3.6c1.3,0,2.1,0.5,2.8,1.2l-0.7,0.7c-0.5-0.6-1.2-1-2.1-1c-1.4,0-2.5,1.2-2.5,2.7
				v0c0,1.5,1.1,2.7,2.5,2.7c0.9,0,1.6-0.4,2.1-1l0.7,0.6c-0.7,0.8-1.5,1.3-2.8,1.3C313,125.6,311.5,123.9,311.5,122z"/>
			<path d="M318.6,122L318.6,122c0-2,1.5-3.6,3.6-3.6c2.1,0,3.6,1.6,3.6,3.6v0c0,1.9-1.5,3.6-3.6,3.6
				C320.1,125.6,318.6,123.9,318.6,122z M324.8,122L324.8,122c0-1.5-1.1-2.7-2.6-2.7c-1.5,0-2.5,1.2-2.5,2.7v0
				c0,1.5,1.1,2.7,2.5,2.7C323.7,124.6,324.8,123.4,324.8,122z"/>
			<path d="M331.3,116.1h3.5c2.1,0,3.5,1.1,3.5,3v0c0,2-1.7,3-3.7,3h-2.3v3.3h-1V116.1z M334.6,121.2c1.5,0,2.6-0.8,2.6-2v0
				c0-1.3-1-2-2.5-2h-2.4v4.1H334.6z"/>
			<path d="M339.6,122.8v-4.3h1v4c0,1.3,0.7,2.1,1.9,2.1c1.2,0,2.1-0.9,2.1-2.2v-3.9h1v6.9h-1v-1.2c-0.5,0.7-1.2,1.3-2.4,1.3
				C340.6,125.5,339.6,124.4,339.6,122.8z"/>
			<path d="M348.7,124.1v1.3h-1v-9.7h1v4.2c0.6-0.8,1.4-1.5,2.6-1.5c1.6,0,3.3,1.3,3.3,3.6v0c0,2.2-1.6,3.6-3.3,3.6
				C350,125.5,349.2,124.9,348.7,124.1z M353.5,122L353.5,122c0-1.7-1.1-2.7-2.4-2.7c-1.3,0-2.5,1.1-2.5,2.6v0
				c0,1.6,1.2,2.7,2.5,2.7C352.5,124.6,353.5,123.6,353.5,122z"/>
			<path d="M356.3,115.7h1v9.7h-1V115.7z"/>
			<path d="M359.5,115.9h1.2v1.1h-1.2V115.9z M359.5,118.5h1v6.9h-1V118.5z"/>
			<path d="M362.3,122L362.3,122c0-2,1.5-3.6,3.5-3.6c1.3,0,2.1,0.5,2.8,1.2l-0.7,0.7c-0.5-0.6-1.2-1-2.1-1c-1.4,0-2.5,1.2-2.5,2.7
				v0c0,1.5,1.1,2.7,2.5,2.7c0.9,0,1.6-0.4,2.1-1l0.7,0.6c-0.7,0.8-1.5,1.3-2.8,1.3C363.8,125.6,362.3,123.9,362.3,122z"/>
			<path d="M373.8,121.5v-5.4h1.1v5.3c0,2,1.1,3.1,2.8,3.1c1.7,0,2.8-1,2.8-3.1v-5.4h1.1v5.3c0,2.7-1.6,4.1-3.9,4.1
				C375.3,125.5,373.8,124.1,373.8,121.5z"/>
			<path d="M383.9,123.6v-4.1h-1v-0.9h1v-2.1h1v2.1h2.2v0.9h-2.2v4c0,0.8,0.5,1.1,1.2,1.1c0.3,0,0.6-0.1,1-0.2v0.9
				c-0.4,0.2-0.7,0.3-1.2,0.3C384.8,125.5,383.9,125,383.9,123.6z"/>
			<path d="M388.7,115.9h1.2v1.1h-1.2V115.9z M388.8,118.5h1v6.9h-1V118.5z"/>
			<path d="M392,115.7h1v9.7h-1V115.7z"/>
			<path d="M395.2,115.9h1.2v1.1h-1.2V115.9z M395.2,118.5h1v6.9h-1V118.5z"/>
			<path d="M398.7,123.6v-4.1h-1v-0.9h1v-2.1h1v2.1h2.2v0.9h-2.2v4c0,0.8,0.5,1.1,1.2,1.1c0.3,0,0.6-0.1,1-0.2v0.9
				c-0.4,0.2-0.7,0.3-1.2,0.3C399.6,125.5,398.7,125,398.7,123.6z"/>
			<path d="M403.5,115.9h1.2v1.1h-1.2V115.9z M403.6,118.5h1v6.9h-1V118.5z"/>
			<path d="M406.3,122L406.3,122c0-2,1.4-3.6,3.3-3.6c2,0,3.2,1.6,3.2,3.6c0,0.1,0,0.2,0,0.3h-5.5c0.1,1.5,1.2,2.3,2.4,2.3
				c0.9,0,1.6-0.4,2.2-1l0.6,0.6c-0.7,0.8-1.5,1.3-2.8,1.3C407.8,125.6,406.3,124.1,406.3,122z M411.7,121.6
				c-0.1-1.2-0.8-2.3-2.2-2.3c-1.2,0-2.1,1-2.2,2.3H411.7z"/>
			<path d="M413.7,124.5l0.5-0.7c0.7,0.6,1.6,0.9,2.4,0.9c0.8,0,1.4-0.4,1.4-1.1v0c0-0.7-0.8-1-1.7-1.2c-1.1-0.3-2.3-0.7-2.3-1.9v0
				c0-1.2,1-2,2.3-2c0.8,0,1.8,0.3,2.5,0.8l-0.5,0.8c-0.6-0.4-1.4-0.7-2-0.7c-0.8,0-1.3,0.4-1.3,1v0c0,0.7,0.8,0.9,1.8,1.2
				c1.1,0.3,2.2,0.7,2.2,2v0c0,1.3-1.1,2.1-2.4,2.1C415.6,125.5,414.5,125.1,413.7,124.5z"/>
			<path d="M424.2,120.8L424.2,120.8c0-2.7,2-4.8,4.7-4.8c1.7,0,2.7,0.6,3.6,1.5l-0.7,0.8c-0.8-0.7-1.7-1.3-2.9-1.3
				c-2.1,0-3.6,1.7-3.6,3.8v0c0,2.2,1.6,3.8,3.6,3.8c1.3,0,2.1-0.5,3-1.3l0.7,0.7c-1,1-2,1.6-3.7,1.6
				C426.1,125.6,424.2,123.4,424.2,120.8z"/>
			<path d="M433.4,122L433.4,122c0-2,1.5-3.6,3.6-3.6c2.1,0,3.6,1.6,3.6,3.6v0c0,1.9-1.5,3.6-3.6,3.6
				C434.9,125.6,433.4,123.9,433.4,122z M439.5,122L439.5,122c0-1.5-1.1-2.7-2.6-2.7c-1.5,0-2.5,1.2-2.5,2.7v0
				c0,1.5,1.1,2.7,2.5,2.7C438.5,124.6,439.5,123.4,439.5,122z"/>
			<path d="M442.1,118.5h1v1.2c0.5-0.7,1.1-1.3,2.2-1.3c1.1,0,1.8,0.6,2.2,1.4c0.5-0.8,1.2-1.4,2.4-1.4c1.6,0,2.6,1.1,2.6,2.8v4.3
				h-1v-4c0-1.3-0.7-2.1-1.8-2.1c-1,0-1.9,0.8-1.9,2.1v4h-1v-4c0-1.3-0.7-2-1.8-2c-1.1,0-1.9,0.9-1.9,2.2v3.9h-1V118.5z"/>
			<path d="M454.5,118.5h1v1.2c0.5-0.7,1.1-1.3,2.2-1.3c1.1,0,1.8,0.6,2.2,1.4c0.5-0.8,1.2-1.4,2.4-1.4c1.6,0,2.6,1.1,2.6,2.8v4.3
				h-1v-4c0-1.3-0.7-2.1-1.8-2.1c-1,0-1.9,0.8-1.9,2.1v4h-1v-4c0-1.3-0.7-2-1.8-2c-1.1,0-1.9,0.9-1.9,2.2v3.9h-1V118.5z"/>
			<path d="M466.9,115.9h1.2v1.1h-1.2V115.9z M467,118.5h1v6.9h-1V118.5z"/>
			<path d="M469.5,124.5l0.5-0.7c0.7,0.6,1.6,0.9,2.4,0.9c0.8,0,1.4-0.4,1.4-1.1v0c0-0.7-0.8-1-1.7-1.2c-1.1-0.3-2.3-0.7-2.3-1.9v0
				c0-1.2,1-2,2.3-2c0.8,0,1.8,0.3,2.5,0.8l-0.5,0.8c-0.6-0.4-1.4-0.7-2-0.7c-0.8,0-1.3,0.4-1.3,1v0c0,0.7,0.9,0.9,1.8,1.2
				c1.1,0.3,2.2,0.7,2.2,2v0c0,1.3-1.1,2.1-2.4,2.1C471.4,125.5,470.3,125.1,469.5,124.5z"/>
			<path d="M475.8,124.5l0.5-0.7c0.7,0.6,1.6,0.9,2.4,0.9c0.8,0,1.4-0.4,1.4-1.1v0c0-0.7-0.8-1-1.7-1.2c-1.1-0.3-2.3-0.7-2.3-1.9v0
				c0-1.2,1-2,2.3-2c0.8,0,1.8,0.3,2.5,0.8l-0.5,0.8c-0.6-0.4-1.4-0.7-2-0.7c-0.8,0-1.3,0.4-1.3,1v0c0,0.7,0.9,0.9,1.8,1.2
				c1.1,0.3,2.2,0.7,2.2,2v0c0,1.3-1.1,2.1-2.4,2.1C477.6,125.5,476.5,125.1,475.8,124.5z"/>
			<path d="M482.7,115.9h1.2v1.1h-1.2V115.9z M482.8,118.5h1v6.9h-1V118.5z"/>
			<path d="M485.5,122L485.5,122c0-2,1.5-3.6,3.6-3.6c2.1,0,3.6,1.6,3.6,3.6v0c0,1.9-1.5,3.6-3.6,3.6
				C487,125.6,485.5,123.9,485.5,122z M491.6,122L491.6,122c0-1.5-1.1-2.7-2.6-2.7c-1.5,0-2.5,1.2-2.5,2.7v0c0,1.5,1.1,2.7,2.5,2.7
				C490.6,124.6,491.6,123.4,491.6,122z"/>
			<path d="M494.2,118.5h1v1.2c0.5-0.7,1.2-1.3,2.4-1.3c1.7,0,2.6,1.1,2.6,2.8v4.3h-1v-4c0-1.3-0.7-2.1-1.9-2.1
				c-1.2,0-2.1,0.9-2.1,2.2v3.9h-1V118.5z"/>
		</g>
	</g>
</g>
</svg>
